<svg xmlns="http://www.w3.org/2000/svg" version="1.1" xmlns:xlink="http://www.w3.org/1999/xlink" xmlns:svgjs="http://svgjs.com/svgjs" width="512" height="512" x="0" y="0" viewBox="0 0 512 512" style="enable-background:new 0 0 512 512" xml:space="preserve" class=""><g><g xmlns="http://www.w3.org/2000/svg"><path d="m503.708 363.084-241-120.5c-4.223-2.111-9.193-2.111-13.416 0l-241 120.5c-5.082 2.54-8.292 7.734-8.292 13.416s3.21 10.876 8.292 13.416l241 120.5c2.111 1.056 4.41 1.584 6.708 1.584s4.597-.528 6.708-1.584l241-120.5c5.082-2.54 8.292-7.734 8.292-13.416s-3.21-10.876-8.292-13.416z" fill="#385A81" data-original="#385a81"></path><path d="m503.708 363.084-241-120.5c-2.222-1.111-4.65-1.621-7.068-1.563v270.958c.12.003.24.021.36.021 2.298 0 4.597-.528 6.708-1.584l241-120.5c5.082-2.54 8.292-7.734 8.292-13.416s-3.21-10.876-8.292-13.416z" fill="#274265" data-original="#274265"></path><path d="m503.708 242.584-241-120.5c-4.223-2.111-9.193-2.111-13.416 0l-241 120.5c-5.082 2.54-8.292 7.734-8.292 13.416s3.21 10.876 8.292 13.416l241 120.5c2.111 1.056 4.41 1.584 6.708 1.584s4.597-.528 6.708-1.584l241-120.5c5.082-2.54 8.292-7.735 8.292-13.416s-3.21-10.876-8.292-13.416z" fill="#EDF6FC" data-original="#edf6fc"></path><path d="m503.708 242.584-241-120.5c-2.222-1.111-4.65-1.621-7.068-1.563v270.958c.12.003.24.021.36.021 2.298 0 4.597-.528 6.708-1.584l241-120.5c5.082-2.54 8.292-7.735 8.292-13.416s-3.21-10.876-8.292-13.416z" fill="#D2E1FE" data-original="#d2e1fe" class=""></path><path d="m503.708 122.084-241-120.5c-4.223-2.111-9.193-2.111-13.416 0l-241 120.5c-5.082 2.54-8.292 7.734-8.292 13.416s3.21 10.876 8.292 13.416l241 120.5c2.111 1.056 4.41 1.584 6.708 1.584s4.597-.528 6.708-1.584l241-120.5c5.082-2.54 8.292-7.734 8.292-13.416s-3.21-10.876-8.292-13.416z" fill="#FF6378" data-original="#ff6378" class=""></path><path d="m503.708 122.084-241-120.5c-2.222-1.111-4.65-1.621-7.068-1.563v270.958c.12.003.24.021.36.021 2.298 0 4.597-.528 6.708-1.584l241-120.5c5.082-2.54 8.292-7.734 8.292-13.416s-3.21-10.876-8.292-13.416z" fill="#FF1F3D" data-original="#ff1f3d" class=""></path></g></g></svg>